<svg width="1080" height="1080" viewBox="0 0 1080 1080" fill="none" xmlns="http://www.w3.org/2000/svg">
<rect width="1080" height="1080" rx="200" fill="#FFF7ED"/>
<path d="M801.177 329.896C800.398 313.769 787.07 300.934 770.752 300.934H543.713C537.415 300.934 532.293 306.055 532.293 312.353C532.293 315.502 533.566 318.365 535.633 320.433C537.701 322.5 540.564 323.789 543.713 323.789H770.767C774.378 323.789 777.416 326.317 778.179 329.705C778.306 330.246 778.37 330.818 778.37 331.407V627.663H301.628V331.407C301.628 327.224 305.048 323.789 309.246 323.789H320.014C326.312 323.789 331.433 318.667 331.433 312.369C331.433 309.22 330.161 306.357 328.093 304.289C326.026 302.222 323.163 300.934 320.014 300.934H309.246C292.419 300.934 278.789 314.58 278.789 331.391V650.486H801.225V331.407C801.225 330.898 801.209 330.405 801.177 329.896Z" fill="#262626"/>
<path d="M849.496 849.28H230.504C207.998 849.28 193.255 825.709 203.116 805.494C203.116 805.478 203.116 805.478 203.132 805.463L278.774 650.52H801.21L876.852 805.463C876.852 805.478 876.868 805.478 876.868 805.494C886.745 825.709 872.002 849.28 849.496 849.28Z" fill="#FF6900"/>
<path d="M716.532 774.494H363.449C353.063 774.494 345.62 764.49 348.61 754.55C350.582 747.997 356.61 743.496 363.449 743.496H716.532C723.371 743.496 729.415 747.981 731.371 754.55C734.361 764.49 726.918 774.494 716.532 774.494Z" fill="#262626"/>
<path d="M849.496 849.28H230.504C207.998 849.28 193.255 825.709 203.116 805.494H876.884C886.745 825.709 872.002 849.28 849.496 849.28Z" fill="#262626"/>
<path d="M565.171 426.3L552.877 470.34L610.961 455.023C610.595 454.562 610.213 454.101 609.784 453.687L565.362 408.327C561.195 404.065 555.088 402.363 549.314 403.842L487.811 419.636C482.038 421.115 477.505 425.568 475.915 431.294L470.777 449.727L565.171 426.3Z" fill="#FF6900"/>
<path d="M503.287 519.231L515.851 474.205L460.074 488.042L458.849 492.448C457.259 498.173 458.833 504.328 463 508.591L507.422 553.951C511.589 558.213 517.696 559.915 523.47 558.436L584.973 542.643C590.746 541.164 595.279 536.71 596.87 530.985L607.844 491.684L503.287 519.231Z" fill="#FF6900"/>
<path d="M655.335 445.498C646.572 443.048 637.474 448.17 635.025 456.933C634.882 457.458 634.771 457.999 634.691 458.508L539.12 483.923L551.494 439.613L467.851 460.353L467.915 460.114L435.151 413.068C435.326 412.575 435.501 412.05 435.645 411.525C438.094 402.762 434.992 394.253 428.758 392.503C422.523 390.754 415.462 396.448 413.028 405.211C410.579 413.975 413.664 422.484 419.915 424.233C421.887 424.79 423.907 424.615 425.863 423.82L463.112 477.243L463.08 477.386L529.593 460.893L517.108 505.649L639.463 473.172C641.371 475.049 643.757 476.448 646.524 477.227C655.288 479.677 664.369 474.555 666.819 465.792C669.22 457.029 664.099 447.947 655.335 445.498Z" fill="#262626"/>
<path d="M519.285 287.013C516.104 275.625 474.72 277.231 426.863 290.591C379.006 303.951 342.775 324.023 345.956 335.411" stroke="#FF6900" stroke-width="4.2439" stroke-miterlimit="10"/>
<path d="M446.722 370.443C479.424 362.654 499.619 329.83 491.831 297.129C484.042 264.427 451.218 244.231 418.516 252.02C385.815 259.809 365.619 292.633 373.408 325.335C381.196 358.036 414.02 378.232 446.722 370.443Z" fill="#262626"/>
<path d="M345.957 335.413C349.138 346.801 390.522 345.195 438.379 331.835C486.236 318.475 522.467 298.403 519.286 287.016" stroke="#FF6900" stroke-width="4.2439" stroke-miterlimit="10"/>
<path d="M361.001 273.784C372.815 273.784 382.393 264.206 382.393 252.392C382.393 240.577 372.815 231 361.001 231C349.187 231 339.609 240.577 339.609 252.392C339.609 264.206 349.187 273.784 361.001 273.784Z" fill="#FF6900"/>
</svg>
