<svg width="1080" height="982" viewBox="0 0 1080 982" fill="none" xmlns="http://www.w3.org/2000/svg">
<g clip-path="url(#clip0_115_142)">
<path d="M954.812 157.069C953.574 131.455 932.406 111.07 906.489 111.07H545.898C535.895 111.07 527.761 119.204 527.761 129.207C527.761 134.209 529.782 138.756 533.066 142.039C536.349 145.323 540.896 147.369 545.898 147.369H906.514C912.248 147.369 917.073 151.386 918.286 156.766C918.488 157.625 918.589 158.534 918.589 159.469V629.993H161.411V159.469C161.411 152.826 166.842 147.369 173.51 147.369H190.611C200.615 147.369 208.748 139.236 208.748 129.232C208.748 124.231 206.728 119.684 203.444 116.4C200.16 113.116 195.613 111.07 190.611 111.07H173.51C146.785 111.07 125.137 132.744 125.137 159.444V666.242H954.888V159.469C954.888 158.661 954.862 157.878 954.812 157.069Z" fill="#262626"/>
<path d="M1031.55 981.975H48.4468C12.7035 981.975 -10.7128 944.539 4.94856 912.433C4.94856 912.408 4.94856 912.408 4.97382 912.383L125.112 666.297H954.863L1075 912.383C1075 912.408 1075.03 912.408 1075.03 912.433C1090.71 944.539 1067.3 981.975 1031.55 981.975Z" fill="#FF6900"/>
<path d="M820.374 863.197H259.595C243.1 863.197 231.279 847.308 236.028 831.521C239.16 821.113 248.733 813.965 259.595 813.965H820.374C831.236 813.965 840.835 821.088 843.942 831.521C848.691 847.308 836.869 863.197 820.374 863.197Z" fill="#262626"/>
<path d="M1031.55 981.971H48.4468C12.7035 981.971 -10.7128 944.536 4.94856 912.43H1075.05C1090.71 944.536 1067.3 981.971 1031.55 981.971Z" fill="#262626"/>
<path d="M579.975 310.179L560.448 380.125L652.699 355.799C652.118 355.067 651.512 354.334 650.83 353.678L580.278 281.635C573.66 274.865 563.96 272.163 554.79 274.512L457.109 299.595C447.939 301.944 440.74 309.017 438.214 318.111L430.055 347.388L579.975 310.179Z" fill="#FF6900"/>
<path d="M481.687 457.778L501.643 386.266L413.055 408.242L411.11 415.239C408.584 424.333 411.084 434.109 417.702 440.878L488.255 512.921C494.873 519.691 504.573 522.394 513.742 520.044L611.424 494.961C620.593 492.612 627.793 485.539 630.319 476.445L647.748 414.027L481.687 457.778Z" fill="#FF6900"/>
<path d="M723.176 340.669C709.258 336.779 694.809 344.913 690.919 358.831C690.691 359.665 690.514 360.524 690.388 361.332L538.599 401.698L558.251 331.323L425.407 364.262L425.508 363.883L373.472 289.163C373.75 288.38 374.028 287.547 374.255 286.713C378.145 272.795 373.22 259.28 363.318 256.502C353.415 253.723 342.2 262.766 338.335 276.685C334.445 290.603 339.346 304.117 349.273 306.896C352.405 307.78 355.613 307.502 358.72 306.239L417.88 391.089L417.829 391.316L523.468 365.121L503.639 436.204L697.966 384.622C700.997 387.603 704.787 389.826 709.182 391.063C723.1 394.954 737.524 386.82 741.414 372.901C745.228 358.983 737.095 344.559 723.176 340.669Z" fill="#262626"/>
<path d="M507.1 88.9653C502.048 70.8789 436.32 73.4302 360.312 94.6489C284.304 115.868 226.761 147.746 231.813 165.832" stroke="#FF6900" stroke-width="4.2439" stroke-miterlimit="10"/>
<path d="M391.853 221.474C443.791 209.103 475.866 156.971 463.496 105.033C451.125 53.0955 398.993 21.0199 347.055 33.3903C295.118 45.7608 263.042 97.893 275.412 149.831C287.783 201.769 339.915 233.844 391.853 221.474Z" fill="#262626"/>
<path d="M231.814 165.836C236.867 183.922 302.594 181.371 378.602 160.152C454.61 138.934 512.153 107.055 507.101 88.9688" stroke="#FF6900" stroke-width="4.2439" stroke-miterlimit="10"/>
<path d="M255.709 67.9503C274.473 67.9503 289.685 52.7391 289.685 33.9751C289.685 15.2112 274.473 0 255.709 0C236.946 0 221.734 15.2112 221.734 33.9751C221.734 52.7391 236.946 67.9503 255.709 67.9503Z" fill="#FF6900"/>
</g>
<defs>
<clipPath id="clip0_115_142">
<rect width="1080" height="982" fill="white"/>
</clipPath>
</defs>
</svg>
